<svg width="33" height="33" viewBox="0 0 33 33" fill="none" xmlns="http://www.w3.org/2000/svg">
<path d="M18.2128 3.13449C18.0895 3.032 17.9434 2.96065 17.7868 2.92645C17.6302 2.89226 17.4676 2.89622 17.3128 2.93801C17.1581 2.9798 17.0156 3.05819 16.8975 3.16656C16.7794 3.27494 16.689 3.41013 16.6341 3.56074L13.8841 11.112L10.8641 8.18574C10.7626 8.08737 10.6415 8.01161 10.5087 7.96345C10.3759 7.91529 10.2343 7.89583 10.0934 7.90634C9.95255 7.91685 9.81547 7.9571 9.69126 8.02443C9.56705 8.09177 9.45852 8.18466 9.37281 8.29699C6.66531 11.8445 5.29031 15.4132 5.29031 18.9032C5.29031 21.8206 6.44924 24.6185 8.51214 26.6814C10.575 28.7443 13.3729 29.9032 16.2903 29.9032C19.2077 29.9032 22.0056 28.7443 24.0685 26.6814C26.1314 24.6185 27.2903 21.8206 27.2903 18.9032C27.2903 11.472 20.9416 5.40324 18.2128 3.13449Z" fill="black"/>
</svg>
