<svg width="48" height="48" viewBox="0 0 48 48" fill="none" xmlns="http://www.w3.org/2000/svg">
<path d="M40.0613 19.0612L25.0613 34.0612C24.9219 34.2007 24.7565 34.3113 24.5744 34.3868C24.3923 34.4623 24.1971 34.5012 24 34.5012C23.8029 34.5012 23.6077 34.4623 23.4256 34.3868C23.2435 34.3113 23.0781 34.2007 22.9387 34.0612L7.93875 19.0612C7.65729 18.7798 7.49917 18.398 7.49917 18C7.49917 17.6019 7.65729 17.2202 7.93875 16.9387C8.22021 16.6573 8.60195 16.4991 9 16.4991C9.39805 16.4991 9.77979 16.6573 10.0612 16.9387L24 30.8794L37.9388 16.9387C38.0781 16.7994 38.2436 16.6888 38.4257 16.6134C38.6077 16.538 38.8029 16.4991 39 16.4991C39.1971 16.4991 39.3923 16.538 39.5743 16.6134C39.7564 16.6888 39.9219 16.7994 40.0613 16.9387C40.2006 17.0781 40.3112 17.2435 40.3866 17.4256C40.462 17.6077 40.5008 17.8029 40.5008 18C40.5008 18.1971 40.462 18.3922 40.3866 18.5743C40.3112 18.7564 40.2006 18.9219 40.0613 19.0612Z" fill="#EDEDED"/>
</svg>
