<svg width="48" height="48" viewBox="0 0 48 48" fill="none" xmlns="http://www.w3.org/2000/svg">
<path d="M5.2 21.18L16.76 9.60002L20.14 13C19.66 14.7 20.44 16.56 22 17.46V28.54C20.8 29.22 20 30.52 20 32C20 33.0609 20.4214 34.0783 21.1716 34.8284C21.9217 35.5786 22.9391 36 24 36C25.0609 36 26.0783 35.5786 26.8284 34.8284C27.5786 34.0783 28 33.0609 28 32C28 30.52 27.2 29.22 26 28.54V18.82L30.14 23C30 23.3 30 23.64 30 24C30 25.0609 30.4214 26.0783 31.1716 26.8284C31.9217 27.5786 32.9391 28 34 28C35.0609 28 36.0783 27.5786 36.8284 26.8284C37.5786 26.0783 38 25.0609 38 24C38 22.9391 37.5786 21.9217 36.8284 21.1716C36.0783 20.4214 35.0609 20 34 20C33.64 20 33.3 20 33 20.14L27.86 15C28.1083 14.0737 28.0121 13.0887 27.5891 12.228C27.1661 11.3673 26.4451 10.6893 25.56 10.32C24.7 10 23.8 9.92002 23 10.14L19.6 6.76002L21.18 5.20001C22.74 3.62001 25.26 3.62001 26.82 5.20001L42.8 21.18C44.38 22.74 44.38 25.26 42.8 26.82L26.82 42.8C25.26 44.38 22.74 44.38 21.18 42.8L5.2 26.82C3.62 25.26 3.62 22.74 5.2 21.18Z" fill="#F03C2E"/>
</svg>
