<svg width="48" height="48" viewBox="0 0 48 48" fill="none" xmlns="http://www.w3.org/2000/svg">
<g clip-path="url(#clip0_17_28)">
<path d="M0 0H48V48H0V0ZM12.6133 40.1067C13.68 42.3733 15.7867 44.24 19.3867 44.24C23.3867 44.24 26.1333 42.1067 26.1333 37.44V22.0267H21.6V37.3333C21.6 39.6267 20.6667 40.2133 19.2 40.2133C17.6533 40.2133 17.0133 39.1467 16.2933 37.8933L12.6133 40.1067ZM28.56 39.6267C29.8933 42.24 32.5867 44.24 36.8 44.24C41.0667 44.24 44.2667 42.0267 44.2667 37.9467C44.2667 34.1867 42.1067 32.5067 38.2667 30.8533L37.1467 30.3733C35.2 29.5467 34.3733 28.9867 34.3733 27.6533C34.3733 26.56 35.2 25.7067 36.5333 25.7067C37.8133 25.7067 38.6667 26.2667 39.44 27.6533L42.9333 25.3333C41.4667 22.7733 39.3867 21.7867 36.5333 21.7867C32.5067 21.7867 29.92 24.3467 29.92 27.7333C29.92 31.4133 32.08 33.1467 35.3333 34.5333L36.4533 35.0133C38.5333 35.92 39.76 36.48 39.76 38.0267C39.76 39.3067 38.56 40.24 36.6933 40.24C34.48 40.24 33.2 39.0933 32.24 37.4933L28.56 39.6267Z" fill="#F7DF1E"/>
</g>
<defs>
<clipPath id="clip0_17_28">
<rect width="48" height="48" fill="white"/>
</clipPath>
</defs>
</svg>
