<svg width="48" height="48" viewBox="0 0 48 48" fill="none" xmlns="http://www.w3.org/2000/svg">
<g clip-path="url(#clip0_206_2)">
<path fill-rule="evenodd" clip-rule="evenodd" d="M6.90776e-07 24C0.000154597 19.8587 1.07193 15.7878 3.11112 12.1833C5.15031 8.57883 8.08752 5.56333 11.6371 3.43004C15.1868 1.29676 19.228 0.118286 23.3679 0.00921228C27.5078 -0.0998617 31.6055 0.864176 35.2625 2.80759C38.9195 4.751 42.0115 7.60765 44.2376 11.0998C46.4638 14.5919 47.7484 18.6006 47.9667 22.7362C48.1849 26.8718 47.3293 30.9935 45.483 34.7005C43.6367 38.4075 40.8626 41.5737 37.4304 43.8912L15.7024 13.472C15.5055 13.1961 15.2261 12.9899 14.9045 12.883C14.5828 12.7761 14.2356 12.7742 13.9127 12.8774C13.5899 12.9806 13.3082 13.1837 13.1082 13.4573C12.9082 13.731 12.8003 14.0611 12.8 14.4V38.4H16V19.392L34.656 45.5104C30.9965 47.3238 26.9348 48.1732 22.8553 47.9784C18.7758 47.7836 14.8135 46.551 11.3434 44.3972C7.87332 42.2434 5.01029 39.2396 3.0253 35.6703C1.04031 32.101 -0.000979079 28.0841 6.90776e-07 24ZM32 32V12.8H35.2V32H32Z" fill="#EDEDED"/>
</g>
<defs>
<clipPath id="clip0_206_2">
<rect width="48" height="48" fill="white"/>
</clipPath>
</defs>
</svg>
