<svg width="48" height="48" viewBox="0 0 48 48" fill="none" xmlns="http://www.w3.org/2000/svg">
<g clip-path="url(#clip0_206_14)">
<path d="M36.75 0H11.25C5.0368 0 0 5.0368 0 11.25V36.75C0 42.9632 5.0368 48 11.25 48H36.75C42.9632 48 48 42.9632 48 36.75V11.25C48 5.0368 42.9632 0 36.75 0Z" fill="url(#paint0_linear_206_14)"/>
<path d="M2.15381 24.2023L11.5858 28.0243V30.6998L0.420189 25.5265V23.9567L2.15381 24.2023ZM11.5858 21.063L2.1675 24.9394L0.420376 25.1306V23.5472L11.5856 18.3876L11.5858 21.063ZM45.2571 24.7483L35.5521 20.9674V18.3602L47.2089 23.5198V25.1169L45.2571 24.7483ZM35.5521 28.0789L45.2844 24.216L47.2089 23.9293V25.5128L35.5521 30.6861V28.0789Z" fill="white"/>
<path fill-rule="evenodd" clip-rule="evenodd" d="M33.0144 11.4561C32.9604 12.3122 32.5747 13.2062 32.6822 14.0385C33.3559 15.2299 34.8386 15.4198 36.0619 15.5016C36.9094 15.6531 36.8987 15.0919 36.8419 14.4615L36.8522 11.4383C35.5729 11.4429 34.2932 11.4257 33.0144 11.4561ZM22.9268 13.8504C20.844 14.2041 18.7328 15.1993 17.0001 16.3974C15.6054 17.4829 18.1973 18.5348 19.1376 18.7106C21.0294 18.7337 22.7074 17.4576 23.9501 16.1331C24.3559 15.5762 24.8627 14.7236 24.3529 14.0781C23.9636 13.7406 23.3976 13.8223 22.9268 13.8504ZM27.3587 16.8795C25.6463 17.2058 24.0169 17.9115 22.5752 18.8942C21.5183 19.2261 20.6471 20.3865 21.9568 20.9679C23.3321 22.0639 24.9261 21.7954 26.1926 21.0555C27.3525 20.3661 28.6054 19.5154 29.142 18.2175C29.6488 16.7957 28.3412 16.743 27.3587 16.8795ZM32.2166 22.3888C31.8977 23.7208 30.5563 24.3264 29.8427 25.3819C29.2592 26.1518 29.5294 27.0587 30.1937 27.6647C30.5171 28.3354 31.0841 28.7102 31.6922 28.1276C33.2582 27.063 33.6913 24.9893 33.6263 23.1924C33.7419 22.4503 32.8905 23.1212 32.2166 22.3888ZM26.2573 24.8906C24.1778 25.2465 22.0978 26.2598 20.3644 27.456C19.0187 28.5399 21.5531 29.5521 22.5011 29.7126C24.4281 29.7154 26.1469 28.4736 27.3653 27.0632C27.789 26.5031 28.3026 25.4154 27.4635 24.9701C27.0883 24.8111 26.6528 24.8578 26.2573 24.8906Z" fill="#B956A6"/>
<path fill-rule="evenodd" clip-rule="evenodd" d="M17.0001 16.3974C15.4007 17.0374 13.8579 17.8144 12.3343 18.6281C12.0512 19.6809 12.2782 20.9846 12.2049 22.1391C12.1993 26.8858 12.2019 31.6328 12.2012 36.3795H15.7299C16.4424 35.7086 17.3349 35.2176 18.1089 34.6084C21.0891 32.4711 24.0682 30.3255 27.0444 28.1942C27.2634 28.2926 27.1232 26.9059 26.6428 27.8691C25.5045 28.9403 23.9936 29.8213 22.3944 29.7353C21.4869 29.4368 20.0241 28.9303 20.0149 27.8183C20.6537 27.0662 18.8362 28.212 18.339 28.3761C16.7224 29.1523 15.144 30.0191 13.524 30.7809C13.9132 30.3628 14.6415 29.973 15.1579 29.5583C18.8466 26.9104 22.5343 24.2522 26.2318 21.6064C26.943 21.1071 27.63 20.5624 28.3631 20.0957C28.4301 20.3543 28.5557 18.8595 28.0104 19.7798C26.8989 20.8815 25.3997 21.7016 23.8185 21.7129C22.9292 21.4429 21.0351 20.7973 21.4567 19.6491C21.6624 19.2461 19.5465 20.508 20.4814 19.7964C21.4764 19.0693 22.4794 18.3551 23.4821 17.6355C23.9886 17.5974 23.8807 15.7163 23.1926 16.9298C22.0367 17.9454 20.5179 18.8747 18.9259 18.6544C18.0315 18.3969 16.9584 17.8984 16.6333 16.9631C16.5257 16.7385 17.2356 16.3884 17.0001 16.3974ZM23.6261 17.5586C23.7868 17.466 23.5374 17.8123 23.6261 17.5586Z" fill="#FCCC44"/>
<path fill-rule="evenodd" clip-rule="evenodd" d="M33.7311 15.1406C33.2317 17.5249 32.6859 20.0203 32.2166 22.3888C33.5651 24.0883 33.6958 21.3152 33.9317 20.5311C34.3129 18.8921 34.7644 17.6546 34.8122 15.9577C34.9134 15.3786 34.2328 15.0279 33.7311 15.1406ZM35.2781 17.0104C35.3396 17.0563 35.2359 17.2547 35.2781 17.0104ZM33.705 22.3567C33.7699 22.4964 33.7699 22.2169 33.705 22.3567Z" fill="#62777F"/>
<path fill-rule="evenodd" clip-rule="evenodd" d="M34.6155 15.4106C35.0363 17.7735 33.6426 20.6441 33.1868 22.872C34.2218 22.1104 35.0214 18.6548 35.2258 17.3021C35.2785 17.1475 35.3434 16.7582 35.3574 16.7441C35.4225 16.4158 36.0287 15.8595 36.0619 15.5016C36.4148 15.2526 34.3275 15.2126 34.6155 15.4106ZM33.7573 22.3568C33.6923 22.4965 33.6923 22.2169 33.7573 22.3568Z" fill="#4E5E67"/>
<path fill-rule="evenodd" clip-rule="evenodd" d="M17.0351 16.4368C16.4516 17.0211 16.6706 16.8784 17.1049 16.3926L17.0351 16.4368ZM23.3464 16.7261C22.6704 17.7418 20.2329 18.5912 19.926 18.657C21.3923 18.3823 22.7589 17.4701 23.7206 16.4018C23.5678 16.4698 23.4771 16.6298 23.3464 16.7261ZM16.6343 17.056C16.9986 17.932 18.3233 18.514 18.9669 18.6497C18.0881 18.3666 17.0537 17.8645 16.6343 17.056ZM23.5736 17.5626C23.3897 17.7797 22.7346 18.1045 22.3892 18.4232C21.6484 18.9696 20.8821 19.4773 20.1497 20.0374C20.616 20.0173 21.9825 18.9966 21.282 20.0323C21.8756 21.054 23.1681 21.7645 24.3465 21.6996C25.9028 21.4553 27.3379 20.5948 28.3695 19.3982C27.1172 20.6374 25.4616 21.8036 23.6295 21.643C22.7428 21.4382 20.3199 20.1866 21.9407 19.3093C22.5122 18.8393 23.4975 18.5931 23.6091 17.767C23.5856 17.6638 23.7778 17.5631 23.5736 17.5626ZM19.1376 18.7106C19.7273 18.7877 19.7273 18.6338 19.1376 18.7106ZM28.3256 20.1216C25.9858 21.7517 23.6799 23.4456 21.3604 25.105C18.7316 26.9863 16.1141 28.8746 13.4861 30.7545C14.4743 30.4213 15.4643 29.7707 16.4458 29.3213C17.7977 28.6061 19.2231 28.0412 20.4879 27.1725C22.9888 25.7003 25.6337 24.2976 27.5573 22.0451C27.9771 21.5528 28.398 20.7602 28.4168 20.2271C28.3562 20.2442 28.4021 20.014 28.3256 20.1216ZM20.3644 27.456C19.9434 27.9317 19.7724 28.2716 20.2093 27.6668C20.2016 27.7369 20.5639 27.2912 20.3644 27.456ZM26.7686 27.6836C25.6598 28.8529 24.0197 29.6963 22.4809 29.7531C24.2599 29.766 25.8649 28.71 27.0701 27.4643C26.991 27.3686 26.8307 27.687 26.7686 27.6836ZM27.1074 28.0511C23.382 30.7631 19.5279 33.5762 15.7899 36.2785C16.3787 36.4631 17.661 36.5498 18.2462 35.7958C19.4912 34.9367 20.8909 34.305 22.14 33.4343C23.9488 32.2605 25.8855 30.9776 26.9128 29.005C26.9618 28.7404 27.3253 28.2645 27.1074 28.0511ZM20.0175 28.2233C20.1904 28.953 22.3515 29.7906 22.1171 29.6303C21.3203 29.3509 20.5298 28.9155 20.0175 28.2233Z" fill="#DC9624"/>
</g>
<defs>
<linearGradient id="paint0_linear_206_14" x1="0" y1="48" x2="48" y2="0" gradientUnits="userSpaceOnUse">
<stop stop-color="#DB7093"/>
<stop offset="1" stop-color="#F3B661"/>
</linearGradient>
<clipPath id="clip0_206_14">
<rect width="48" height="48" fill="white"/>
</clipPath>
</defs>
</svg>
