<svg width="48" height="48" viewBox="0 0 48 48" fill="none" xmlns="http://www.w3.org/2000/svg">
<g clip-path="url(#clip0_17_38)">
<mask id="mask0_17_38" style="mask-type:luminance" maskUnits="userSpaceOnUse" x="0" y="0" width="48" height="48">
<path d="M0 0H48V48H0V0Z" fill="white"/>
</mask>
<g mask="url(#mask0_17_38)">
<path d="M46.858 1.75454e-06H1.14C0.837471 0.000531581 0.547513 0.121083 0.333778 0.335192C0.120044 0.549301 1.29368e-06 0.839471 1.75763e-06 1.142V46.86C-0.000261708 47.01 0.0290972 47.1587 0.0863947 47.2973C0.143692 47.436 0.227801 47.562 0.333898 47.6681C0.439995 47.7742 0.565993 47.8583 0.704666 47.9156C0.843338 47.9729 0.991958 48.0023 1.142 48.002H46.86C47.01 48.002 47.1585 47.9725 47.297 47.9151C47.4356 47.8577 47.5615 47.7736 47.6675 47.6675C47.7736 47.5615 47.8577 47.4356 47.9151 47.297C47.9725 47.1585 48.002 47.01 48.002 46.86V1.14C48.0017 0.990032 47.9719 0.841583 47.9143 0.703129C47.8567 0.564676 47.7723 0.43893 47.6661 0.333071C47.5599 0.227212 47.4338 0.143314 47.2952 0.0861655C47.1565 0.0290173 47.008 -0.000261119 46.858 1.75454e-06ZM28.572 25.652H22.858V43.428H18.286V25.652H12.572V21.714H28.572V25.652ZM29.852 42.412V37.662C29.852 37.662 32.448 39.618 35.562 39.618C38.676 39.618 38.556 37.582 38.556 37.302C38.556 34.348 29.732 34.348 29.732 27.8C29.732 18.896 42.59 22.41 42.59 22.41L42.43 26.642C42.43 26.642 40.274 25.204 37.838 25.204C35.402 25.204 34.524 26.364 34.524 27.6C34.524 30.794 43.428 30.476 43.428 36.904C43.428 46.804 29.852 42.414 29.852 42.414V42.412Z" fill="#699BF7"/>
</g>
</g>
<defs>
<clipPath id="clip0_17_38">
<rect width="48" height="48" fill="white"/>
</clipPath>
</defs>
</svg>
